<?xml version="1.0" encoding="utf-8"?>
<!-- Generator: Adobe Illustrator 17.1.0, SVG Export Plug-In . SVG Version: 6.00 Build 0)  -->
<!DOCTYPE svg PUBLIC "-//W3C//DTD SVG 1.1//EN" "http://www.w3.org/Graphics/SVG/1.1/DTD/svg11.dtd">
<svg version="1.1" id="Layer_1" xmlns="http://www.w3.org/2000/svg" xmlns:xlink="http://www.w3.org/1999/xlink" x="0px" y="0px"
	 viewBox="0 0 715.482 260" enable-background="new 0 0 715.482 260" xml:space="preserve">
<rect x="5" y="5" fill="none" stroke="#FFFFFF" stroke-width="10" stroke-miterlimit="10" width="250" height="250"/>
<g>
	<path fill="#FFFFFF" d="M101.762,139.104l0.879,3.857h0.293l0.83-3.76l15.479-52.295h15.039L110.111,158H95.463L71.342,86.906
		h15.039L101.762,139.104z"/>
	<path fill="#FFFFFF" d="M168.461,158c-0.521-1.204-0.969-2.474-1.343-3.809c-0.375-1.334-0.643-2.702-0.806-4.102
		c-1.465,2.572-3.394,4.704-5.786,6.396s-5.249,2.539-8.569,2.539c-5.534,0-9.798-1.424-12.793-4.272
		c-2.995-2.848-4.492-6.73-4.492-11.646c0-5.176,1.994-9.188,5.981-12.036c3.987-2.848,9.806-4.272,17.456-4.272h7.959V122.6
		c0-2.539-0.667-4.508-2.002-5.908c-1.335-1.399-3.304-2.1-5.908-2.1c-2.312,0-4.094,0.562-5.347,1.685
		c-1.253,1.123-1.88,2.678-1.88,4.663l-13.77-0.049l-0.049-0.293c-0.228-4.459,1.709-8.309,5.811-11.548
		c4.102-3.239,9.489-4.858,16.162-4.858c6.315,0,11.442,1.604,15.381,4.81c3.938,3.207,5.908,7.772,5.908,13.696v21.826
		c0,2.474,0.187,4.802,0.562,6.982c0.374,2.181,0.968,4.346,1.782,6.494H168.461z M155.424,148.479c2.506,0,4.736-0.618,6.689-1.855
		c1.953-1.237,3.271-2.669,3.955-4.297v-7.471h-7.959c-3.027,0-5.322,0.757-6.885,2.271s-2.344,3.345-2.344,5.493
		c0,1.758,0.586,3.174,1.758,4.248S153.405,148.479,155.424,148.479z"/>
</g>
<g>
	<path fill="#FFFFFF" d="M88.887,203.505c0-0.885-0.33-1.609-0.989-2.173s-1.824-1.069-3.494-1.517
		c-2.383-0.625-4.216-1.453-5.5-2.483s-1.926-2.38-1.926-4.05c0-1.719,0.71-3.135,2.131-4.248s3.254-1.67,5.5-1.67
		c2.344,0,4.226,0.632,5.647,1.897s2.107,2.781,2.058,4.548l-0.029,0.088h-3.413c0-1.094-0.371-1.98-1.113-2.659
		s-1.802-1.018-3.179-1.018c-1.299,0-2.297,0.283-2.996,0.848c-0.698,0.565-1.047,1.296-1.047,2.192
		c0,0.809,0.378,1.481,1.135,2.017c0.757,0.536,2.009,1.042,3.757,1.52c2.295,0.615,4.038,1.465,5.229,2.549
		s1.787,2.466,1.787,4.146c0,1.777-0.71,3.191-2.131,4.241s-3.289,1.575-5.603,1.575c-2.227,0-4.18-0.593-5.859-1.78
		s-2.495-2.805-2.446-4.856l0.029-0.088h3.428c0,1.299,0.449,2.268,1.348,2.908s2.065,0.959,3.501,0.959
		c1.318,0,2.344-0.265,3.076-0.795C88.521,205.126,88.887,204.41,88.887,203.505z"/>
	<path fill="#FFFFFF" d="M102.29,206.451c0.869,0,1.602-0.255,2.197-0.765s0.894-1.148,0.894-1.916h3.223l0.029,0.088
		c0.049,1.484-0.554,2.764-1.809,3.838s-2.766,1.611-4.534,1.611c-2.334,0-4.124-0.752-5.369-2.256s-1.868-3.408-1.868-5.713v-0.513
		c0-2.295,0.623-4.197,1.868-5.706s3.035-2.263,5.369-2.263c1.904,0,3.45,0.554,4.636,1.663s1.76,2.517,1.721,4.226l-0.029,0.088
		h-3.237c0-0.869-0.286-1.606-0.857-2.212s-1.316-0.908-2.234-0.908c-1.338,0-2.285,0.485-2.842,1.456
		c-0.557,0.971-0.835,2.187-0.835,3.65v0.512c0,1.492,0.278,2.718,0.835,3.679C100.005,205.971,100.952,206.451,102.29,206.451z"/>
	<path fill="#FFFFFF" d="M115.283,189.269h-3.56v-3.12h3.56V189.269z M115.283,209h-3.56v-15.85h3.56V209z"/>
	<path fill="#FFFFFF" d="M126.064,209.308c-2.246,0-4.036-0.735-5.369-2.205s-2-3.357-2-5.662v-0.586
		c0-2.305,0.662-4.216,1.985-5.735s2.981-2.273,4.973-2.263c2.139,0,3.777,0.647,4.915,1.941s1.707,3.03,1.707,5.208v2.095h-9.888
		l-0.029,0.073c0.059,1.255,0.427,2.282,1.106,3.08c0.679,0.798,1.619,1.197,2.82,1.197c0.957,0,1.777-0.117,2.461-0.352
		s1.343-0.571,1.978-1.011l1.143,2.334c-0.596,0.53-1.387,0.977-2.373,1.34C128.506,209.126,127.363,209.308,126.064,209.308z
		 M125.654,195.714c-0.879,0-1.602,0.349-2.168,1.047s-0.918,1.584-1.055,2.659l0.029,0.073h6.284v-0.366
		c0-1.006-0.256-1.826-0.769-2.461S126.689,195.714,125.654,195.714z"/>
	<path fill="#FFFFFF" d="M138.369,193.15l0.205,2.285c0.518-0.811,1.169-1.443,1.956-1.897s1.672-0.681,2.659-0.681
		c1.65,0,2.937,0.5,3.86,1.501s1.384,2.561,1.384,4.68V209h-3.56v-9.932c0-1.191-0.247-2.039-0.74-2.542s-1.243-0.754-2.249-0.754
		c-0.693,0-1.313,0.154-1.86,0.461s-0.996,0.73-1.348,1.267V209h-3.56v-15.85H138.369z"/>
	<path fill="#FFFFFF" d="M158.687,206.451c0.869,0,1.602-0.255,2.197-0.765s0.894-1.148,0.894-1.916H165l0.029,0.088
		c0.049,1.484-0.554,2.764-1.809,3.838s-2.766,1.611-4.534,1.611c-2.334,0-4.124-0.752-5.369-2.256s-1.868-3.408-1.868-5.713v-0.513
		c0-2.295,0.623-4.197,1.868-5.706s3.035-2.263,5.369-2.263c1.904,0,3.45,0.554,4.636,1.663s1.76,2.517,1.721,4.226l-0.029,0.088
		h-3.237c0-0.869-0.286-1.606-0.857-2.212s-1.316-0.908-2.234-0.908c-1.338,0-2.285,0.485-2.842,1.456
		c-0.557,0.971-0.835,2.187-0.835,3.65v0.512c0,1.492,0.278,2.718,0.835,3.679C156.401,205.971,157.349,206.451,158.687,206.451z"/>
	<path fill="#FFFFFF" d="M174.683,209.308c-2.246,0-4.036-0.735-5.369-2.205s-2-3.357-2-5.662v-0.586
		c0-2.305,0.662-4.216,1.985-5.735s2.981-2.273,4.973-2.263c2.139,0,3.777,0.647,4.915,1.941s1.707,3.03,1.707,5.208v2.095h-9.888
		l-0.029,0.073c0.059,1.255,0.427,2.282,1.106,3.08c0.679,0.798,1.619,1.197,2.82,1.197c0.957,0,1.777-0.117,2.461-0.352
		s1.343-0.571,1.978-1.011l1.143,2.334c-0.596,0.53-1.387,0.977-2.373,1.34C177.124,209.126,175.981,209.308,174.683,209.308z
		 M174.272,195.714c-0.879,0-1.602,0.349-2.168,1.047s-0.918,1.584-1.055,2.659l0.029,0.073h6.284v-0.366
		c0-1.006-0.256-1.826-0.769-2.461S175.308,195.714,174.272,195.714z"/>
</g>
<g>
	<path fill="#FFFFFF" d="M37.985,40h-1.731V28.891l-2.619,0.035v-1.248l4.351-0.475V40z"/>
	<path fill="#FFFFFF" d="M46.625,38.822c0.844,0,1.519-0.318,2.026-0.955c0.507-0.637,0.76-1.584,0.76-2.842v-0.58
		c-0.287,0.416-0.646,0.731-1.077,0.945s-0.91,0.321-1.437,0.321c-1.236,0-2.218-0.382-2.944-1.147s-1.09-1.818-1.09-3.16
		c0-1.283,0.385-2.335,1.156-3.155s1.707-1.23,2.808-1.23c1.336,0,2.389,0.417,3.16,1.252s1.156,2.064,1.156,3.687v3.05
		c0,1.67-0.417,2.95-1.252,3.841s-1.923,1.336-3.265,1.336c-0.451,0-0.91-0.043-1.375-0.128s-0.883-0.216-1.252-0.394l0.264-1.333
		c0.346,0.182,0.705,0.309,1.077,0.382S46.139,38.822,46.625,38.822z M46.897,34.349c0.639,0,1.17-0.138,1.595-0.413
		s0.731-0.626,0.918-1.053v-1.105c0-1.118-0.215-1.963-0.646-2.537c-0.431-0.573-1.059-0.86-1.885-0.86
		c-0.633,0-1.172,0.282-1.617,0.847c-0.445,0.565-0.668,1.289-0.668,2.172c0,0.877,0.207,1.588,0.62,2.133
		C45.627,34.077,46.188,34.349,46.897,34.349z"/>
	<path fill="#FFFFFF" d="M61.602,40h-8.297v-1.194l4.192-4.65c0.75-0.838,1.258-1.503,1.525-1.995s0.4-0.996,0.4-1.512
		c0-0.639-0.186-1.176-0.558-1.613s-0.866-0.655-1.481-0.655c-0.885,0-1.537,0.227-1.956,0.681s-0.628,1.091-0.628,1.912h-1.661
		l-0.018-0.053c-0.029-1.102,0.337-2.027,1.099-2.777s1.816-1.125,3.164-1.125c1.148,0,2.064,0.335,2.747,1.006
		s1.024,1.525,1.024,2.562c0,0.697-0.207,1.396-0.62,2.096s-0.992,1.452-1.736,2.254l-3.366,3.656l0.018,0.044h6.152V40z"/>
	<path fill="#FFFFFF" d="M65.812,32.802h1.512c0.768,0,1.311-0.192,1.63-0.576s0.479-0.918,0.479-1.604
		c0-0.732-0.182-1.289-0.545-1.67s-0.899-0.571-1.608-0.571c-0.674,0-1.214,0.198-1.622,0.593s-0.611,0.921-0.611,1.578h-1.661
		l-0.018-0.053c-0.029-0.967,0.321-1.789,1.05-2.465s1.683-1.015,2.861-1.015c1.184,0,2.127,0.315,2.83,0.945
		s1.055,1.528,1.055,2.694c0,0.527-0.16,1.053-0.479,1.578s-0.798,0.924-1.437,1.2c0.768,0.252,1.311,0.647,1.63,1.187
		s0.479,1.143,0.479,1.811c0,1.166-0.382,2.083-1.147,2.751s-1.742,1.002-2.931,1.002c-1.166,0-2.131-0.315-2.896-0.945
		s-1.132-1.484-1.103-2.562l0.026-0.053h1.652c0,0.671,0.207,1.205,0.62,1.602s0.98,0.595,1.701,0.595
		c0.732,0,1.307-0.198,1.723-0.595s0.624-0.984,0.624-1.76c0-0.788-0.185-1.369-0.554-1.742s-0.952-0.561-1.749-0.561h-1.512V32.802
		z"/>
</g>
<g>
	<path fill="#FFFFFF" d="M311.64,57.56l17.28-41.04h3.672l-22.176,51.912H308.4L286.152,16.52h3.888l17.28,40.896
		c1.199,2.928,1.943,4.944,2.231,6.048C309.936,61.928,310.632,59.961,311.64,57.56z"/>
	<path fill="#FFFFFF" d="M343.247,68V16.52h3.456V68H343.247z"/>
	<path fill="#FFFFFF" d="M365.711,68V16.736c4.56-0.335,8.376-0.504,11.448-0.504c4.896,0,8.928,1.26,12.096,3.78
		s4.752,6.084,4.752,10.692c0,3.121-0.912,6.024-2.735,8.712c-1.825,2.689-3.865,4.824-6.12,6.408
		c1.775,2.448,3.971,5.364,6.588,8.748c2.615,3.384,4.308,5.508,5.076,6.372c2.927,3.121,6.239,4.896,9.936,5.328l-0.072,2.304
		c-2.928-0.048-5.304-0.493-7.128-1.332c-1.824-0.839-3.563-2.124-5.22-3.852s-5.772-7.104-12.348-16.128
		c-4.705,0-8.977-0.144-12.816-0.432V68H365.711z M379.896,44.384c2.111,0,4.367-1.392,6.768-4.176c2.399-2.783,3.6-6.012,3.6-9.684
		s-1.236-6.455-3.708-8.352c-2.473-1.896-5.748-2.844-9.828-2.844c-2.159,0-4.68,0.097-7.56,0.288v24.408
		C373.007,44.265,376.583,44.384,379.896,44.384z"/>
	<path fill="#FFFFFF" d="M419.782,25.592c-3.985,4.513-5.977,10.044-5.977,16.596c0,6.552,2.256,12.108,6.769,16.668
		c4.511,4.561,10.008,6.84,16.488,6.84c5.567,0,10.199-0.767,13.896-2.304V42.224h3.456v22.752
		c-4.176,2.592-10.021,3.888-17.532,3.888c-7.513,0-13.859-2.58-19.044-7.74c-5.184-5.159-7.775-11.472-7.775-18.936
		c0-7.463,2.351-13.752,7.056-18.864c4.703-5.112,10.728-7.668,18.072-7.668c5.76,0,11.592,0.961,17.495,2.88l-0.936,2.88
		c-5.76-1.728-11.28-2.592-16.56-2.592C428.901,18.824,423.766,21.081,419.782,25.592z"/>
	<path fill="#FFFFFF" d="M472.27,68V16.52h3.456V68H472.27z"/>
	<path fill="#FFFFFF" d="M498.046,24.728l0.144,6.12V68h-3.456V16.088h1.584l33.912,39.096c2.304,2.736,4.079,4.921,5.328,6.552
		c-0.192-2.304-0.288-4.943-0.288-7.92V16.52h3.456v51.912h-1.584l-34.561-39.816c-2.4-2.736-3.936-4.56-4.607-5.472L498.046,24.728
		z"/>
	<path fill="#FFFFFF" d="M557.733,68V16.52h3.456V68H557.733z"/>
	<path fill="#FFFFFF" d="M582.934,50.144L575.518,68h-3.672l21.672-51.84h2.016L617.277,68h-3.888l-7.416-17.856H582.934z
		 M594.31,21.92c-0.049,0.048-0.145,0.336-0.288,0.864c-0.673,2.064-1.321,3.816-1.944,5.256l-7.92,19.152h20.592l-7.92-19.08
		C595.148,24.465,594.31,22.4,594.31,21.92z"/>
	<path fill="#FFFFFF" d="M297.24,136.544l-7.416,17.856h-3.672l21.672-51.84h2.016l21.744,51.84h-3.888l-7.416-17.856H297.24z
		 M308.616,108.32c-0.049,0.048-0.145,0.336-0.288,0.864c-0.673,2.064-1.321,3.816-1.944,5.256l-7.92,19.152h20.592l-7.92-19.08
		C309.455,110.865,308.616,108.8,308.616,108.32z"/>
	<path fill="#FFFFFF" d="M365.855,155.264c-7.488,0-13.921-2.556-19.296-7.668c-5.376-5.112-8.063-11.423-8.063-18.936
		c0-7.511,2.351-13.824,7.056-18.936c4.703-5.112,10.728-7.668,18.072-7.668c5.76,0,11.592,0.961,17.495,2.88l-0.936,2.88
		c-5.76-1.728-11.28-2.592-16.56-2.592c-6.289,0-11.425,2.256-15.408,6.768c-3.985,4.513-5.977,10.033-5.977,16.56
		c0,6.528,2.315,12.085,6.948,16.668c4.632,4.584,10.188,6.876,16.668,6.876c5.663,0,10.56-0.864,14.688-2.592l1.08,2.448
		c-1.825,1.057-4.212,1.872-7.164,2.448S368.639,155.264,365.855,155.264z"/>
	<path fill="#FFFFFF" d="M397.896,136.544l-7.416,17.856h-3.672l21.672-51.84h2.016l21.744,51.84h-3.888l-7.416-17.856H397.896z
		 M409.271,108.32c-0.049,0.048-0.145,0.336-0.288,0.864c-0.673,2.064-1.321,3.816-1.944,5.256l-7.92,19.152h20.592l-7.92-19.08
		C410.11,110.865,409.271,108.8,409.271,108.32z"/>
	<path fill="#FFFFFF" d="M457.728,102.416c7.92,0,14.544,2.46,19.872,7.38c5.328,4.921,7.992,11.604,7.992,20.052
		c0,4.272-0.685,8.053-2.052,11.34c-1.368,3.288-3.253,5.917-5.652,7.884c-4.944,3.985-11.113,5.976-18.504,5.976
		c-4.849,0-10.345-0.264-16.488-0.792V102.92C447.792,102.584,452.734,102.416,457.728,102.416z M459.384,151.88
		c6.768,0,12.204-1.836,16.308-5.508c4.104-3.672,6.156-9.204,6.156-16.596c0-7.391-2.316-13.271-6.948-17.64
		c-4.633-4.367-10.356-6.552-17.172-6.552c-4.368,0-8.161,0.12-11.376,0.36v45.36C449.472,151.688,453.814,151.88,459.384,151.88z"
		/>
	<path fill="#FFFFFF" d="M501.574,154.4v-51.48h23.904v3.024H505.03v18.936h18.504v2.952H505.03v23.544h21.24v3.024H501.574z"/>
	<path fill="#FFFFFF" d="M564.43,151.736h-1.943l-15.049-36.432c-0.863-2.016-1.56-3.791-2.088-5.328l-0.72,5.472l-5.904,38.952
		h-3.527l8.495-51.912h2.017l16.056,38.16c0.815,1.776,1.464,3.456,1.944,5.04c0.144-0.528,0.888-2.184,2.231-4.968l17.929-38.232
		h1.943l7.849,51.912h-3.601l-5.615-39.096c-0.385-2.448-0.576-4.295-0.576-5.544c-0.049,0.048-0.156,0.277-0.324,0.684
		c-0.169,0.408-0.457,1.08-0.864,2.016c-0.408,0.936-0.828,1.908-1.26,2.916L564.43,151.736z"/>
	<path fill="#FFFFFF" d="M620.805,154.4h-3.456v-18.432l-19.367-33.048h4.176l14.976,26.064c0.864,1.537,1.584,2.88,2.16,4.032
		c0.191-0.624,0.864-1.919,2.017-3.888l14.976-26.208h3.96l-19.44,33.192V154.4z"/>
	<path fill="#FFFFFF" d="M314.304,241.52c-6.672,0-12.265-2.328-16.776-6.984c-4.512-4.655-6.768-10.355-6.768-17.1
		c0-6.744,2.256-12.444,6.768-17.1c4.511-4.655,10.104-6.984,16.776-6.984s12.264,2.329,16.776,6.984
		c4.511,4.656,6.768,10.356,6.768,17.1c0,6.744-2.257,12.444-6.768,17.1C326.567,239.192,320.976,241.52,314.304,241.52z
		 M314.34,196.304c-5.784,0-10.584,2.041-14.4,6.12c-3.816,4.081-5.724,9.084-5.724,15.012c0,5.929,1.908,10.92,5.724,14.976
		c3.816,4.057,8.616,6.084,14.4,6.084s10.572-2.027,14.364-6.084c3.791-4.056,5.688-9.047,5.688-14.976
		c0-5.928-1.896-10.932-5.688-15.012C324.912,198.345,320.124,196.304,314.34,196.304z"/>
	<path fill="#FFFFFF" d="M352.247,240.8v-46.728h23.977v2.88H355.56v16.992h18.864v2.808H355.56V240.8H352.247z"/>
	<path fill="#FFFFFF" d="M438.069,193.856c-3.504-1.487-6.984-2.232-10.44-2.232c-7.008,0-10.512,2.592-10.512,7.776
		c0,2.257,0.792,4.356,2.376,6.3c1.584,1.944,3.504,3.672,5.76,5.184s4.512,3.06,6.769,4.644c2.256,1.584,4.176,3.481,5.76,5.688
		c1.584,2.208,2.376,4.608,2.376,7.2c0,4.368-1.465,7.668-4.392,9.9c-2.929,2.232-6.973,3.348-12.132,3.348
		c-5.161,0-9.565-1.319-13.213-3.96l1.729-2.592c3.456,2.257,7.247,3.384,11.376,3.384c4.128,0,7.296-0.828,9.504-2.484
		c2.207-1.656,3.312-4.043,3.312-7.164c0-2.16-0.792-4.212-2.376-6.156s-3.505-3.696-5.761-5.256
		c-2.257-1.56-4.512-3.156-6.768-4.788c-2.257-1.631-4.176-3.575-5.76-5.832c-1.584-2.256-2.376-4.68-2.376-7.272
		c0-3.408,1.26-6.108,3.779-8.1c2.521-1.991,5.928-2.988,10.225-2.988c4.295,0,8.291,0.864,11.987,2.592L438.069,193.856z"/>
	<path fill="#FFFFFF" d="M479.541,241.664c-7.488,0-13.921-2.556-19.296-7.668c-5.376-5.112-8.063-11.423-8.063-18.936
		c0-7.511,2.351-13.824,7.056-18.936c4.703-5.112,10.728-7.668,18.072-7.668c5.76,0,11.592,0.961,17.495,2.88l-0.936,2.88
		c-5.76-1.728-11.28-2.592-16.56-2.592c-6.289,0-11.425,2.256-15.408,6.768c-3.985,4.513-5.977,10.033-5.977,16.56
		c0,6.528,2.315,12.085,6.948,16.668c4.632,4.584,10.188,6.876,16.668,6.876c5.663,0,10.56-0.864,14.688-2.592l1.08,2.448
		c-1.825,1.057-4.212,1.872-7.164,2.448S482.324,241.664,479.541,241.664z"/>
	<path fill="#FFFFFF" d="M508.845,240.8v-51.48h3.456v51.48H508.845z"/>
	<path fill="#FFFFFF" d="M531.309,240.8v-51.48h23.904v3.024h-20.448v18.936h18.504v2.952h-18.504v23.544h21.24v3.024H531.309z"/>
	<path fill="#FFFFFF" d="M573.141,197.528l0.144,6.12V240.8h-3.456v-51.912h1.584l33.912,39.096
		c2.304,2.736,4.079,4.921,5.328,6.552c-0.192-2.304-0.288-4.943-0.288-7.92V189.32h3.456v51.912h-1.584l-34.561-39.816
		c-2.4-2.736-3.936-4.56-4.607-5.472L573.141,197.528z"/>
	<path fill="#FFFFFF" d="M657.164,241.664c-7.488,0-13.921-2.556-19.296-7.668c-5.376-5.112-8.063-11.423-8.063-18.936
		c0-7.511,2.351-13.824,7.056-18.936c4.703-5.112,10.728-7.668,18.072-7.668c5.76,0,11.592,0.961,17.495,2.88l-0.936,2.88
		c-5.76-1.728-11.28-2.592-16.56-2.592c-6.289,0-11.425,2.256-15.408,6.768c-3.985,4.513-5.977,10.033-5.977,16.56
		c0,6.528,2.315,12.085,6.948,16.668c4.632,4.584,10.188,6.876,16.668,6.876c5.663,0,10.56-0.864,14.688-2.592l1.08,2.448
		c-1.825,1.057-4.212,1.872-7.164,2.448S659.947,241.664,657.164,241.664z"/>
	<path fill="#FFFFFF" d="M686.468,240.8v-51.48h23.904v3.024h-20.448v18.936h18.504v2.952h-18.504v23.544h21.24v3.024H686.468z"/>
</g>
</svg>
