<?xml version="1.0" encoding="utf-8"?>
<!-- Generator: Adobe Illustrator 17.1.0, SVG Export Plug-In . SVG Version: 6.00 Build 0)  -->
<!DOCTYPE svg PUBLIC "-//W3C//DTD SVG 1.1//EN" "http://www.w3.org/Graphics/SVG/1.1/DTD/svg11.dtd">
<svg version="1.1" id="Layer_1" xmlns="http://www.w3.org/2000/svg" xmlns:xlink="http://www.w3.org/1999/xlink" x="0px" y="0px"
	 viewBox="0 0 260 260" enable-background="new 0 0 260 260" xml:space="preserve">
<rect x="5" y="5" fill="none" stroke="#FFFFFF" stroke-width="10" stroke-miterlimit="10" width="250" height="250"/>
<g>
	<path fill="#FFFFFF" d="M101.762,139.104l0.879,3.857h0.293l0.83-3.76l15.479-52.295h15.039L110.111,158H95.463L71.342,86.906
		h15.039L101.762,139.104z"/>
	<path fill="#FFFFFF" d="M168.461,158c-0.521-1.204-0.969-2.474-1.343-3.809c-0.375-1.334-0.643-2.702-0.806-4.102
		c-1.465,2.572-3.394,4.704-5.786,6.396s-5.249,2.539-8.569,2.539c-5.534,0-9.798-1.424-12.793-4.272
		c-2.995-2.848-4.492-6.73-4.492-11.646c0-5.176,1.994-9.188,5.981-12.036c3.987-2.848,9.806-4.272,17.456-4.272h7.959V122.6
		c0-2.539-0.667-4.508-2.002-5.908c-1.335-1.399-3.304-2.1-5.908-2.1c-2.312,0-4.094,0.562-5.347,1.685
		c-1.253,1.123-1.88,2.678-1.88,4.663l-13.77-0.049l-0.049-0.293c-0.228-4.459,1.709-8.309,5.811-11.548
		c4.102-3.239,9.489-4.858,16.162-4.858c6.315,0,11.442,1.604,15.381,4.81c3.938,3.207,5.908,7.772,5.908,13.696v21.826
		c0,2.474,0.187,4.802,0.562,6.982c0.374,2.181,0.968,4.346,1.782,6.494H168.461z M155.424,148.479c2.506,0,4.736-0.618,6.689-1.855
		c1.953-1.237,3.271-2.669,3.955-4.297v-7.471h-7.959c-3.027,0-5.322,0.757-6.885,2.271s-2.344,3.345-2.344,5.493
		c0,1.758,0.586,3.174,1.758,4.248S153.405,148.479,155.424,148.479z"/>
</g>
<g>
	<path fill="#FFFFFF" d="M88.887,203.505c0-0.885-0.33-1.609-0.989-2.173s-1.824-1.069-3.494-1.517
		c-2.383-0.625-4.216-1.453-5.5-2.483s-1.926-2.38-1.926-4.05c0-1.719,0.71-3.135,2.131-4.248s3.254-1.67,5.5-1.67
		c2.344,0,4.226,0.632,5.647,1.897s2.107,2.781,2.058,4.548l-0.029,0.088h-3.413c0-1.094-0.371-1.98-1.113-2.659
		s-1.802-1.018-3.179-1.018c-1.299,0-2.297,0.283-2.996,0.848c-0.698,0.565-1.047,1.296-1.047,2.192
		c0,0.809,0.378,1.481,1.135,2.017c0.757,0.536,2.009,1.042,3.757,1.52c2.295,0.615,4.038,1.465,5.229,2.549
		s1.787,2.466,1.787,4.146c0,1.777-0.71,3.191-2.131,4.241s-3.289,1.575-5.603,1.575c-2.227,0-4.18-0.593-5.859-1.78
		s-2.495-2.805-2.446-4.856l0.029-0.088h3.428c0,1.299,0.449,2.268,1.348,2.908s2.065,0.959,3.501,0.959
		c1.318,0,2.344-0.265,3.076-0.795C88.521,205.126,88.887,204.41,88.887,203.505z"/>
	<path fill="#FFFFFF" d="M102.29,206.451c0.869,0,1.602-0.255,2.197-0.765s0.894-1.148,0.894-1.916h3.223l0.029,0.088
		c0.049,1.484-0.554,2.764-1.809,3.838s-2.766,1.611-4.534,1.611c-2.334,0-4.124-0.752-5.369-2.256s-1.868-3.408-1.868-5.713v-0.513
		c0-2.295,0.623-4.197,1.868-5.706s3.035-2.263,5.369-2.263c1.904,0,3.45,0.554,4.636,1.663s1.76,2.517,1.721,4.226l-0.029,0.088
		h-3.237c0-0.869-0.286-1.606-0.857-2.212s-1.316-0.908-2.234-0.908c-1.338,0-2.285,0.485-2.842,1.456
		c-0.557,0.971-0.835,2.187-0.835,3.65v0.512c0,1.492,0.278,2.718,0.835,3.679C100.005,205.971,100.952,206.451,102.29,206.451z"/>
	<path fill="#FFFFFF" d="M115.283,189.269h-3.56v-3.12h3.56V189.269z M115.283,209h-3.56v-15.85h3.56V209z"/>
	<path fill="#FFFFFF" d="M126.064,209.308c-2.246,0-4.036-0.735-5.369-2.205s-2-3.357-2-5.662v-0.586
		c0-2.305,0.662-4.216,1.985-5.735s2.981-2.273,4.973-2.263c2.139,0,3.777,0.647,4.915,1.941s1.707,3.03,1.707,5.208v2.095h-9.888
		l-0.029,0.073c0.059,1.255,0.427,2.282,1.106,3.08c0.679,0.798,1.619,1.197,2.82,1.197c0.957,0,1.777-0.117,2.461-0.352
		s1.343-0.571,1.978-1.011l1.143,2.334c-0.596,0.53-1.387,0.977-2.373,1.34C128.506,209.126,127.363,209.308,126.064,209.308z
		 M125.654,195.714c-0.879,0-1.602,0.349-2.168,1.047s-0.918,1.584-1.055,2.659l0.029,0.073h6.284v-0.366
		c0-1.006-0.256-1.826-0.769-2.461S126.689,195.714,125.654,195.714z"/>
	<path fill="#FFFFFF" d="M138.369,193.15l0.205,2.285c0.518-0.811,1.169-1.443,1.956-1.897s1.672-0.681,2.659-0.681
		c1.65,0,2.937,0.5,3.86,1.501s1.384,2.561,1.384,4.68V209h-3.56v-9.932c0-1.191-0.247-2.039-0.74-2.542s-1.243-0.754-2.249-0.754
		c-0.693,0-1.313,0.154-1.86,0.461s-0.996,0.73-1.348,1.267V209h-3.56v-15.85H138.369z"/>
	<path fill="#FFFFFF" d="M158.687,206.451c0.869,0,1.602-0.255,2.197-0.765s0.894-1.148,0.894-1.916H165l0.029,0.088
		c0.049,1.484-0.554,2.764-1.809,3.838s-2.766,1.611-4.534,1.611c-2.334,0-4.124-0.752-5.369-2.256s-1.868-3.408-1.868-5.713v-0.513
		c0-2.295,0.623-4.197,1.868-5.706s3.035-2.263,5.369-2.263c1.904,0,3.45,0.554,4.636,1.663s1.76,2.517,1.721,4.226l-0.029,0.088
		h-3.237c0-0.869-0.286-1.606-0.857-2.212s-1.316-0.908-2.234-0.908c-1.338,0-2.285,0.485-2.842,1.456
		c-0.557,0.971-0.835,2.187-0.835,3.65v0.512c0,1.492,0.278,2.718,0.835,3.679C156.401,205.971,157.349,206.451,158.687,206.451z"/>
	<path fill="#FFFFFF" d="M174.683,209.308c-2.246,0-4.036-0.735-5.369-2.205s-2-3.357-2-5.662v-0.586
		c0-2.305,0.662-4.216,1.985-5.735s2.981-2.273,4.973-2.263c2.139,0,3.777,0.647,4.915,1.941s1.707,3.03,1.707,5.208v2.095h-9.888
		l-0.029,0.073c0.059,1.255,0.427,2.282,1.106,3.08c0.679,0.798,1.619,1.197,2.82,1.197c0.957,0,1.777-0.117,2.461-0.352
		s1.343-0.571,1.978-1.011l1.143,2.334c-0.596,0.53-1.387,0.977-2.373,1.34C177.124,209.126,175.981,209.308,174.683,209.308z
		 M174.272,195.714c-0.879,0-1.602,0.349-2.168,1.047s-0.918,1.584-1.055,2.659l0.029,0.073h6.284v-0.366
		c0-1.006-0.256-1.826-0.769-2.461S175.308,195.714,174.272,195.714z"/>
</g>
<g>
	<path fill="#FFFFFF" d="M37.985,40h-1.731V28.891l-2.619,0.035v-1.248l4.351-0.475V40z"/>
	<path fill="#FFFFFF" d="M46.625,38.822c0.844,0,1.519-0.318,2.026-0.955c0.507-0.637,0.76-1.584,0.76-2.842v-0.58
		c-0.287,0.416-0.646,0.731-1.077,0.945s-0.91,0.321-1.437,0.321c-1.236,0-2.218-0.382-2.944-1.147s-1.09-1.818-1.09-3.16
		c0-1.283,0.385-2.335,1.156-3.155s1.707-1.23,2.808-1.23c1.336,0,2.389,0.417,3.16,1.252s1.156,2.064,1.156,3.687v3.05
		c0,1.67-0.417,2.95-1.252,3.841s-1.923,1.336-3.265,1.336c-0.451,0-0.91-0.043-1.375-0.128s-0.883-0.216-1.252-0.394l0.264-1.333
		c0.346,0.182,0.705,0.309,1.077,0.382S46.139,38.822,46.625,38.822z M46.897,34.349c0.639,0,1.17-0.138,1.595-0.413
		s0.731-0.626,0.918-1.053v-1.105c0-1.118-0.215-1.963-0.646-2.537c-0.431-0.573-1.059-0.86-1.885-0.86
		c-0.633,0-1.172,0.282-1.617,0.847c-0.445,0.565-0.668,1.289-0.668,2.172c0,0.877,0.207,1.588,0.62,2.133
		C45.627,34.077,46.188,34.349,46.897,34.349z"/>
	<path fill="#FFFFFF" d="M61.602,40h-8.297v-1.194l4.192-4.65c0.75-0.838,1.258-1.503,1.525-1.995s0.4-0.996,0.4-1.512
		c0-0.639-0.186-1.176-0.558-1.613s-0.866-0.655-1.481-0.655c-0.885,0-1.537,0.227-1.956,0.681s-0.628,1.091-0.628,1.912h-1.661
		l-0.018-0.053c-0.029-1.102,0.337-2.027,1.099-2.777s1.816-1.125,3.164-1.125c1.148,0,2.064,0.335,2.747,1.006
		s1.024,1.525,1.024,2.562c0,0.697-0.207,1.396-0.62,2.096s-0.992,1.452-1.736,2.254l-3.366,3.656l0.018,0.044h6.152V40z"/>
	<path fill="#FFFFFF" d="M65.812,32.802h1.512c0.768,0,1.311-0.192,1.63-0.576s0.479-0.918,0.479-1.604
		c0-0.732-0.182-1.289-0.545-1.67s-0.899-0.571-1.608-0.571c-0.674,0-1.214,0.198-1.622,0.593s-0.611,0.921-0.611,1.578h-1.661
		l-0.018-0.053c-0.029-0.967,0.321-1.789,1.05-2.465s1.683-1.015,2.861-1.015c1.184,0,2.127,0.315,2.83,0.945
		s1.055,1.528,1.055,2.694c0,0.527-0.16,1.053-0.479,1.578s-0.798,0.924-1.437,1.2c0.768,0.252,1.311,0.647,1.63,1.187
		s0.479,1.143,0.479,1.811c0,1.166-0.382,2.083-1.147,2.751s-1.742,1.002-2.931,1.002c-1.166,0-2.131-0.315-2.896-0.945
		s-1.132-1.484-1.103-2.562l0.026-0.053h1.652c0,0.671,0.207,1.205,0.62,1.602s0.98,0.595,1.701,0.595
		c0.732,0,1.307-0.198,1.723-0.595s0.624-0.984,0.624-1.76c0-0.788-0.185-1.369-0.554-1.742s-0.952-0.561-1.749-0.561h-1.512V32.802
		z"/>
</g>
</svg>
